<svg width="313" height="501" viewBox="0 0 313 501" fill="none" xmlns="http://www.w3.org/2000/svg">
<g id="g869">
<g id="g871">
<g id="g873">
<path id="path879" d="M177.875 498.622L196.718 498.29V492.103L162.554 498.887L177.875 498.622Z" fill="#06B4FF"/>
<path id="path881" d="M310.56 498.519C313.015 496.602 313.25 493.151 312.608 489.691L304.485 500.284C307.107 500.023 309.327 499.484 310.56 498.519Z" fill="#00E3FF"/>
<path id="path883" d="M308.365 479.218C306.576 477.799 304.399 476.146 302.286 474.795L302.008 500.449C302.861 500.416 303.692 500.363 304.485 500.284L312.608 489.691C311.679 484.679 308.907 479.646 308.365 479.218Z" fill="#02F8FF"/>
<path id="path885" d="M269.551 210.018C269.551 207.06 268.056 206.884 264.224 209.393C263.047 210.165 262.316 210.576 261.699 210.629L257.032 218.022C263.739 215.93 269.551 212.578 269.551 210.018Z" fill="#54FFF0"/>
<path id="path887" d="M143.509 2.55752C141.392 1.41985 138.569 0.487305 137.241 0.487305C134.153 0.487305 125.906 3.15328 119.648 6.36625L143.807 2.94307C143.699 2.81868 143.599 2.69063 143.509 2.55752Z" fill="#3455A3"/>
<path id="path889" d="M277.973 345.995C275.336 331.756 271.953 314.989 270.458 308.719C270.186 307.579 269.932 306.533 269.684 305.561L252.613 284.151C251.892 283.606 251.137 283.037 250.347 282.44C243.048 276.943 236.599 272.65 229.084 268.457L217.243 314.213L233.433 324.872V352.359C233.433 356.319 233.43 359.721 233.407 362.768L280.926 364.419C280.009 358.107 279.024 351.936 277.973 345.995Z" fill="#45FFFF"/>
<path id="path891" d="M252.613 284.151L269.684 305.561C267.234 295.987 265.33 293.791 252.613 284.151Z" fill="#4BFFFF"/>
<path id="path893" d="M280.926 364.419L233.407 362.768C233.356 369.605 233.204 374.649 232.744 380.133L286.525 415.628C285.252 398.552 283.333 380.991 280.926 364.419Z" fill="#28FFFF"/>
<path id="path895" d="M202.245 216.741C218.04 224.63 236.906 232.84 240.801 232.84C241.46 232.84 241.157 231.639 240.127 230.165C239.095 228.69 238.251 225.814 238.251 223.769V220.047L245.776 219.994C249.231 219.972 253.272 219.196 257.032 218.022L261.699 210.629C260.973 210.69 260.402 210.255 259.453 209.306C258.383 208.242 257.513 206.541 257.513 205.526C257.513 203.134 263.632 197.45 268.296 195.521C273.359 193.426 272.876 191.889 267.144 191.889C263.335 191.889 261.361 192.768 257.672 196.103C255.108 198.416 251.718 202.206 250.142 204.52C246.9 209.286 245.599 209.622 242.001 206.634L239.468 204.53L242.367 195.497C243.965 190.536 244.809 186.302 244.242 186.093C243.676 185.887 241.147 186.317 238.623 187.04C236.098 187.762 226.406 188.69 217.075 189.095L200.112 189.833L199.321 180.448C199.318 180.418 199.315 180.383 199.313 180.352L179.767 185.32L202.245 216.741Z" fill="#53E3BD"/>
<path id="path897" d="M300.284 473.603C294.306 470.355 287.265 466.132 285.673 464.765C281.675 461.328 282.68 459.15 288.277 459.15C288.281 451.919 288.099 444.264 287.756 436.356L242.995 466.024L242.55 473.133C242.095 480.351 241.435 487.939 241.089 489.999C240.366 494.256 242.197 495.233 250.951 495.263H255.826L257.271 488.27C258.724 481.23 262.158 476.006 265.337 476.006C266.274 476.006 268.168 477.217 269.545 478.69C272.055 481.382 272.397 482.367 273.746 490.751C274.418 494.931 274.771 495.263 278.531 495.263C284.125 495.263 286.382 496.312 285.762 499.13C285.715 499.404 294.636 500.727 302.008 500.449L302.286 474.795C301.607 474.36 300.934 473.957 300.284 473.603Z" fill="#0CE2FF"/>
<path id="path899" d="M199.308 468.134C199.331 468.087 199.352 468.04 199.369 467.992C199.796 466.882 199.35 445.762 198.597 422.454L183.962 421.903L199.308 468.134Z" fill="#17E3FF"/>
<path id="path901" d="M287.209 425.791L226.677 423.511C223.712 442.78 221.396 458.508 221.396 459.443C221.396 460.994 223.071 461.18 232.386 460.643L243.374 460.018L242.995 466.024L287.756 436.356C287.606 432.878 287.422 429.353 287.209 425.791Z" fill="#17E3FF"/>
<path id="path903" d="M286.525 415.628L232.744 380.133C232.017 388.862 230.512 398.711 227.417 418.724C227.167 420.34 226.921 421.937 226.677 423.511L287.209 425.791C287.008 422.43 286.779 419.038 286.525 415.628Z" fill="#28F2FF"/>
<path id="path905" d="M198.597 422.454C198.173 409.313 197.652 395.48 197.132 384.146L183.962 421.903L198.597 422.454Z" fill="#28F2FF"/>
<path id="path907" d="M199.313 180.352C198.878 175.147 198.506 164.187 198.482 155.897C198.473 152.398 198.379 147.936 198.231 143.307L179.767 185.32L199.313 180.352Z" fill="#53BDA3"/>
<path id="path909" d="M187.402 73.6173C191.596 69.1394 192.661 64.8913 191.074 58.9637C189.896 54.5643 190.005 52.8556 191.723 48.3479C194.18 41.9124 193.735 40.4431 188.267 36.8934C183.935 34.0761 183.236 31.7469 185.201 26.5903C186.772 22.4594 183.174 17.2359 175.678 16.6197C170.757 16.2146 167.172 13.2903 166.322 9.71587C161.577 5.15502 160.692 4.78839 154.282 4.71565C149.621 5.67146 145.522 4.89826 143.807 2.94299L119.648 6.36618C118.485 6.96338 117.391 7.5802 116.411 8.20214C113.355 11.258 109.35 13.4657 107.515 12.7383C106.731 12.6335 105.863 12.6131 104.984 12.8154L186.964 74.0574C187.111 73.9177 187.256 73.7729 187.402 73.6173Z" fill="#4578A3"/>
<path id="path911" d="M110.865 88.5831C110.362 85.8342 110.294 83.0017 112.248 80.2033C112.378 82.1287 112.735 83.5872 113.11 83.5872C113.799 83.5872 116.625 91.4069 117.562 95.4323C114.266 96.8807 111.848 93.9805 110.865 88.5831ZM163.002 94.4278C163.451 92.4064 164.848 90.1943 166.117 89.5207C166.314 89.4377 166.53 89.3017 166.76 89.1286C166.293 87.9881 166.081 86.8911 166.215 86.1026C166.215 86.1026 167.299 84.3837 167.309 85.1453C167.321 85.9462 167.528 86.9901 167.892 88.0659C170.504 85.1977 173.703 79.1478 172.08 76.6979C172.014 76.4484 172.983 76.356 174.37 76.3263C173.988 76.0316 173.572 75.7654 173.12 75.5406C171.855 74.915 173.95 74.6568 173.95 74.6568C174.632 74.9806 175.354 75.5552 176.039 76.3139C177.02 76.3154 178.074 76.3269 179.057 76.3269C183.191 76.3269 185.147 75.7894 186.964 74.0575L104.984 12.8154C103.229 13.2206 101.431 14.5248 100.178 17.8775L100.781 65.3657C103.419 66.8437 105.976 67.8693 107.972 69.4864H107.968C108.875 70.8692 111.327 75.4723 112.021 78.2059C110.478 80.887 109.475 82.9435 109.936 88.4317C110.516 95.4396 113.888 97.0341 117.827 96.8064C117.848 96.9831 117.862 97.1388 117.864 97.2705L162.817 97.3782C162.79 96.1801 162.844 95.1509 163.002 94.4278Z" fill="#4B77A3"/>
<path id="path913" d="M174.37 76.3263C178.567 79.5589 178.633 86.6387 177.197 89.349C173.165 96.9613 169.319 92.2761 167.893 88.0659C167.495 88.5024 167.111 88.8639 166.76 89.1287C168.496 93.3716 173.779 98.2132 178.124 89.9695C180.794 84.9097 178.677 79.2293 176.039 76.3138C175.446 76.3131 174.881 76.3154 174.37 76.3263Z" fill="#4B77A3"/>
<path id="path915" d="M208.193 258.095C208.046 258.028 207.903 257.963 207.761 257.896L129.71 257.47L192.085 343.962C189.053 335.481 183.556 324.677 173.007 304.736C165.024 289.647 158.735 277.06 159.028 276.767C159.321 276.474 176.181 287.177 196.498 300.556L217.244 314.213L229.084 268.457C223.114 265.124 216.471 261.855 208.193 258.095Z" fill="#50E2F2"/>
<path id="path917" d="M129.71 257.47L207.761 257.896C185.305 247.682 180.71 245.151 175.044 239.93C168.804 234.173 160.005 221.044 160.005 217.48C160.005 214.891 172.476 200.34 174.688 200.34C175.336 200.34 177.992 202.152 180.581 204.364C183.599 206.95 192.315 211.782 202.245 216.741L179.767 185.32L129.71 257.47Z" fill="#54D4B8"/>
<path id="path919" d="M198.231 143.308C198.025 136.898 197.714 130.167 197.377 125.214C196.48 112.118 195.931 109.315 193.887 107.264C190.468 103.846 182.329 104.188 173.764 108.109C170.029 109.822 166.391 111.572 165.865 111.249C164.472 110.39 162.928 102.4 162.817 97.3782L117.864 97.2705C117.865 97.288 117.866 97.3062 117.866 97.3228C117.866 98.1041 120.444 100.711 123.589 103.114C126.734 105.516 130.849 109.1 132.74 111.073C136.733 115.263 137.348 114.676 122.446 120.848C122.399 120.868 122.354 120.888 122.307 120.908L179.767 185.32L198.231 143.308Z" fill="#52A0A3"/>
<path id="path921" d="M115.658 292.551C134.528 317.565 140.103 327.589 144.325 344.101C145.407 348.336 146.26 353.961 146.6 358.79L195.772 361.31C195.183 355.022 194.283 350.1 192.085 343.962L129.71 257.47L115.658 292.551Z" fill="#4AC2FC"/>
<path id="path923" d="M131.272 498.891H132.954C140.225 498.891 141.302 497.933 142.446 490.468C144.859 474.648 155.942 476.478 158.228 493.074L159.033 498.949L162.554 498.887L196.718 492.103V489.691C196.718 479.237 195.434 477.464 184.916 473.457L177.455 470.605L188.046 470.253C196.135 469.988 198.635 469.531 199.309 468.134L183.962 421.903L131.272 498.891Z" fill="#11AFFF"/>
<path id="path925" d="M146.763 362.929C146.763 371.638 146.142 376.621 140.231 391.095L183.962 421.903L197.132 384.146C196.787 376.552 196.442 370.082 196.127 365.693C196.018 364.147 195.903 362.696 195.772 361.31L146.601 358.79C146.705 360.263 146.763 361.665 146.763 362.929Z" fill="#35CDFF"/>
<path id="path927" d="M179.767 185.32L123.521 191.159C124.563 195.362 124.977 198.827 124.497 200.346C124.126 201.508 120.63 204.701 116.723 207.44C113.744 209.53 111.07 211.68 108.686 213.893L129.71 257.47L179.767 185.32Z" fill="#54B1A3"/>
<path id="path929" d="M122.307 120.908C111.646 125.35 106.035 130.771 102.871 139.677C102.019 142.074 101.068 144.472 100.035 146.85L99.0767 188.203C108.957 174.706 115.505 165.331 116.865 166.171C117.416 166.513 117.87 168.637 117.87 170.888C117.87 173.144 118.96 177.748 120.288 181.123C121.638 184.548 122.75 188.056 123.521 191.159L179.767 185.32L122.307 120.908Z" fill="#529DA3"/>
<path id="path931" d="M119.181 438.706C116.955 443.977 115.466 447.914 115.464 448.677C115.464 450.097 117.397 451.654 121.157 453.265C127.46 455.965 128.96 457.567 128.017 460.594C127.67 461.708 127.225 470.78 127.026 480.756L126.675 498.891H131.272L183.962 421.903L119.181 438.706Z" fill="#179FFF"/>
<path id="path933" d="M140.231 391.095C136.762 399.592 131.47 411.359 123.412 429.072C121.861 432.485 120.409 435.798 119.181 438.706L183.962 421.903L140.231 391.095Z" fill="#2AAAFE"/>
<path id="path935" d="M71.3814 186.747C70.5274 187.423 69.5935 188.071 68.5962 188.702L95.4506 193.133C96.704 191.438 97.9129 189.792 99.0767 188.203L100.036 146.85C93.0436 162.949 82.1907 178.192 71.3814 186.747Z" fill="#4F8BA3"/>
<path id="path937" d="M99.5947 19.7448C99.116 21.5902 94.9065 26.9621 92.9294 28.3733C86.6257 32.8702 97.1186 46.3178 97.0065 48.4368C98.2177 50.419 92.1285 58.5237 96.1125 62.0494C97.6321 63.4578 99.2207 64.4906 100.781 65.3658L100.178 17.8776C99.9678 18.4413 99.7714 19.0604 99.5947 19.7448Z" fill="#455FA3"/>
<path id="path939" d="M51.8788 242.84L59.7115 236.659C70.5703 225.271 80.6667 212.712 89.2691 201.387L45.4638 236.128C49.3583 240.804 52.3174 243.751 51.8788 242.84Z" fill="#549BA3"/>
<path id="path941" d="M108.686 213.893C99.6361 222.303 94.8519 231.653 94.086 242.333C93.8198 246.055 93.8838 249.503 94.382 252.924L129.71 257.47L108.686 213.893Z" fill="#549BA3"/>
<path id="path943" d="M94.3821 252.924C95.962 263.772 101.922 274.349 115.649 292.539C115.651 292.543 115.655 292.546 115.658 292.551L129.71 257.47L94.3821 252.924Z" fill="#519DBF"/>
<path id="path945" d="M35.3964 236.172C35.8249 235.966 36.2402 235.753 36.6403 235.535L42.4421 232.376C40.6403 230.064 38.7803 227.533 37.052 224.945L35.3964 236.172Z" fill="#4F91A3"/>
<path id="path947" d="M40.3472 202.596L37.3393 222.998L43.2488 231.938L42.4421 232.376C43.4815 233.711 44.5014 234.973 45.4637 236.128L89.269 201.387C91.428 198.545 93.4916 195.781 95.4506 193.133L68.596 188.702C61.0798 193.453 49.8479 197.11 40.3472 202.596Z" fill="#4F91A3"/>
<path id="path949" d="M34.1403 220.29L33.4659 222.02C31.7697 226.376 30.4684 226.714 25.3198 224.12C22.8218 222.86 18.0224 221.19 14.6559 220.405C9.81139 219.276 7.65608 219.466 4.32527 221.313C2.15905 222.514 0.991555 223.49 0.802429 224.162L2.38309 225.16C3.06685 225.208 3.96448 225.174 5.0825 225.047C10.0965 224.476 18.2028 226.473 19.3623 228.573C19.8526 229.457 19.9144 231.367 19.4968 232.821C19.1156 234.148 18.824 234.806 18.1133 235.091L24.991 239.434C28.6098 238.749 32.3385 237.635 35.3965 236.172L37.0521 224.945C36.0199 223.401 35.0365 221.837 34.1403 220.29Z" fill="#4A87A3"/>
<path id="path951" d="M37.3394 222.998L40.3472 202.596C40.3073 202.62 40.2672 202.642 40.2265 202.665C37.3242 204.349 28.8127 204.764 29.7991 209.979C30.3693 213.001 32.0032 216.599 34.1403 220.29L34.6626 218.949L37.3394 222.998Z" fill="#4A87A3"/>
<path id="path953" d="M2.38304 225.159L0.802371 224.161C0.643068 224.724 1.17408 225.072 2.38304 225.159Z" fill="#4680A3"/>
<path id="path955" d="M15.3658 235.209C10.7976 234.872 9.57706 235.75 11.0123 238.339C12.2008 240.48 18.4158 240.672 24.9908 239.433L18.1132 235.091C17.5487 235.318 16.7188 235.308 15.3658 235.209Z" fill="#4680A3"/>
</g>
</g>
</g>
</svg>
